<svg width="18" height="18" viewBox="0 0 18 18" fill="none" xmlns="http://www.w3.org/2000/svg">
<path d="M9.9468 14.2329C9.89668 14.1829 9.85692 14.1234 9.82979 14.058C9.80267 13.9925 9.7887 13.9224 9.7887 13.8516C9.7887 13.7807 9.80267 13.7106 9.82979 13.6451C9.85692 13.5797 9.89668 13.5202 9.9468 13.4702L13.8786 9.53906L3.32038 9.53906C3.17741 9.53906 3.0403 9.48226 2.9392 9.38117C2.83811 9.28008 2.78131 9.14296 2.78131 8.99999C2.78131 8.85703 2.83811 8.71991 2.9392 8.61882C3.0403 8.51773 3.17741 8.46093 3.32038 8.46093L13.8786 8.46093L9.9468 4.52982C9.84565 4.42867 9.78883 4.29148 9.78883 4.14843C9.78883 4.00538 9.84565 3.8682 9.9468 3.76705C10.048 3.6659 10.1851 3.60907 10.3282 3.60907C10.4712 3.60907 10.6084 3.6659 10.7096 3.76705L15.5611 8.61861C15.6113 8.66867 15.651 8.72812 15.6781 8.79357C15.7053 8.85901 15.7192 8.92915 15.7192 8.99999C15.7192 9.07084 15.7053 9.14098 15.6781 9.20642C15.651 9.27186 15.6113 9.33132 15.5611 9.38138L10.7096 14.2329C10.6595 14.2831 10.6001 14.3228 10.5346 14.35C10.4692 14.3771 10.399 14.391 10.3282 14.391C10.2573 14.391 10.1872 14.3771 10.1218 14.35C10.0563 14.3228 9.99687 14.2831 9.9468 14.2329Z" fill="black"/>
</svg>
