<svg width="18" height="18" viewBox="0 0 18 18" fill="none" xmlns="http://www.w3.org/2000/svg">
<path d="M15.0024 1.34717H2.24764C1.90936 1.34717 1.58494 1.48155 1.34574 1.72074C1.10655 1.95994 0.972168 2.28436 0.972168 2.62264V15.3774C0.972168 15.7156 1.10655 16.0401 1.34574 16.2793C1.58494 16.5185 1.90936 16.6528 2.24764 16.6528H15.0024C15.3406 16.6528 15.6651 16.5185 15.9043 16.2793C16.1435 16.0401 16.2778 15.7156 16.2778 15.3774V2.62264C16.2778 2.28436 16.1435 1.95994 15.9043 1.72074C15.6651 1.48155 15.3406 1.34717 15.0024 1.34717ZM7.64448 14.1409C6.93385 14.6253 6.06803 14.827 5.2165 14.7066C4.36496 14.5862 3.58903 14.1523 3.04058 13.4899C2.49213 12.8274 2.21065 11.9842 2.25124 11.1251C2.29183 10.2661 2.65158 9.45311 3.26005 8.84535L5.28247 6.82293C5.93036 6.17622 6.80838 5.813 7.7238 5.813C8.63922 5.813 9.51724 6.17622 10.1651 6.82293C10.5152 7.1709 10.7858 7.59052 10.9583 8.05296C10.9876 8.13148 11.0012 8.21499 10.9982 8.29875C10.9953 8.3825 10.9758 8.46486 10.941 8.5411C10.9062 8.61735 10.8568 8.68599 10.7955 8.74312C10.7341 8.80024 10.6622 8.84473 10.5836 8.87405C10.5051 8.90336 10.4216 8.91692 10.3379 8.91395C10.2541 8.91099 10.1718 8.89156 10.0955 8.85676C10.0193 8.82197 9.95062 8.7725 9.89349 8.71118C9.83636 8.64986 9.79187 8.57789 9.76256 8.49938C9.6344 8.15833 9.42276 7.85487 9.14701 7.61676C8.87125 7.37865 8.54018 7.2135 8.1841 7.13641C7.82802 7.05933 7.45829 7.07277 7.10874 7.17552C6.7592 7.27826 6.441 7.46702 6.18327 7.72453L4.16085 9.74695C3.77749 10.1303 3.5509 10.6429 3.5254 11.1845C3.4999 11.726 3.67732 12.2576 4.02296 12.6753C4.3686 13.093 4.85762 13.3668 5.39439 13.4431C5.93116 13.5194 6.47709 13.3927 6.92543 13.0879C6.9944 13.0363 7.07309 12.9992 7.15676 12.9789C7.24044 12.9586 7.32737 12.9554 7.41231 12.9696C7.49724 12.9837 7.57843 13.015 7.65097 13.0614C7.72352 13.1078 7.78591 13.1684 7.8344 13.2395C7.88288 13.3107 7.91645 13.391 7.93308 13.4754C7.94972 13.5599 7.94906 13.6469 7.93117 13.7311C7.91327 13.8154 7.8785 13.8951 7.82896 13.9655C7.77941 14.036 7.71612 14.0956 7.64289 14.1409H7.64448ZM13.9908 9.15465L11.9683 11.1771C11.6486 11.4988 11.2683 11.7539 10.8493 11.9275C10.4303 12.1012 9.98095 12.1899 9.5274 12.1887C8.82483 12.1878 8.13923 11.9727 7.56199 11.5722C6.98475 11.1717 6.5433 10.6048 6.29647 9.94704C6.23727 9.78847 6.24348 9.61288 6.31375 9.4589C6.38401 9.30491 6.51257 9.18515 6.67114 9.12595C6.8297 9.06675 7.00529 9.07297 7.15928 9.14324C7.31326 9.2135 7.43302 9.34206 7.49222 9.50062C7.64783 9.91428 7.92549 10.2709 8.28837 10.5232C8.65126 10.7754 9.08225 10.9115 9.52421 10.9132C9.81034 10.914 10.0938 10.8581 10.3582 10.7486C10.6225 10.6392 10.8626 10.4783 11.0643 10.2755L13.0892 8.25305C13.4725 7.86968 13.6991 7.35709 13.7246 6.81553C13.7501 6.27396 13.5727 5.74235 13.227 5.32465C12.8814 4.90695 12.3924 4.63319 11.8556 4.5569C11.3188 4.4806 10.7729 4.60726 10.3246 4.91211C10.2556 4.96368 10.1769 5.00075 10.0932 5.02109C10.0096 5.04142 9.92263 5.0446 9.83769 5.03043C9.75276 5.01626 9.67157 4.98503 9.59902 4.93863C9.52648 4.89223 9.46409 4.83162 9.4156 4.76046C9.36712 4.68929 9.33355 4.60905 9.31691 4.52456C9.30028 4.44007 9.30093 4.35308 9.31883 4.26885C9.33673 4.18462 9.3715 4.10488 9.42104 4.03445C9.47059 3.96402 9.53388 3.90436 9.60711 3.85905C10.3179 3.37711 11.1827 3.17729 12.0329 3.29857C12.883 3.41985 13.6575 3.85354 14.2051 4.515C14.7528 5.17647 15.0343 6.01825 14.9948 6.87609C14.9553 7.73394 14.5969 8.5463 13.9908 9.15465Z" fill="#737373"/>
</svg>
