<svg width="20" height="20" viewBox="0 0 21 20" fill="none" xmlns="http://www.w3.org/2000/svg">
<path d="M1.76531 20C1.57214 20 1.3833 19.9428 1.22267 19.8355C1.06204 19.7282 0.936849 19.5756 0.862921 19.3972C0.788993 19.2187 0.769653 19.0223 0.807349 18.8329C0.845045 18.6434 0.938082 18.4694 1.07469 18.3328L19.1215 0.286064C19.3046 0.1029 19.553 0 19.8121 0C20.0711 0 20.3195 0.1029 20.5027 0.286064C20.6859 0.469228 20.7888 0.717652 20.7888 0.976685C20.7888 1.23572 20.6859 1.48414 20.5027 1.66731L2.45593 19.7141C2.36532 19.8049 2.25767 19.8769 2.13915 19.9259C2.02063 19.975 1.89359 20.0002 1.76531 20Z" fill="#4D4D4D"/>
<path d="M19.812 20C19.6837 20.0002 19.5567 19.975 19.4382 19.9259C19.3197 19.8769 19.212 19.8049 19.1214 19.7141L1.07464 1.66731C0.891475 1.48414 0.788574 1.23572 0.788574 0.976685C0.788574 0.717652 0.891475 0.469228 1.07464 0.286064C1.2578 0.1029 1.50623 0 1.76526 0C2.02429 0 2.27272 0.1029 2.45588 0.286064L20.5026 18.3328C20.6392 18.4694 20.7323 18.6434 20.77 18.8329C20.8077 19.0223 20.7883 19.2187 20.7144 19.3972C20.6405 19.5756 20.5153 19.7282 20.3547 19.8355C20.194 19.9428 20.0052 20 19.812 20Z" fill="#4D4D4D"/>
</svg>
