
<svg width="41" height="40" viewBox="0 0 41 40" fill="none" xmlns="http://www.w3.org/2000/svg">
<g clip-path="url(#clip0_6587_3912)">
<path d="M20.7891 0C16.8334 0 12.9666 1.17298 9.67766 3.37061C6.38868 5.56823 3.82523 8.69181 2.31148 12.3463C0.797728 16.0008 0.401662 20.0222 1.17337 23.9018C1.94507 27.7814 3.84988 31.3451 6.64693 34.1421C9.44398 36.9392 13.0076 38.844 16.8873 39.6157C20.7669 40.3874 24.7882 39.9913 28.4427 38.4776C32.0973 36.9638 35.2208 34.4004 37.4185 31.1114C39.6161 27.8224 40.7891 23.9556 40.7891 20C40.7835 14.6974 38.6745 9.61356 34.925 5.86405C31.1755 2.11453 26.0917 0.00559965 20.7891 0ZM28.0314 25.0654C28.1743 25.2083 28.2877 25.378 28.3651 25.5648C28.4424 25.7515 28.4822 25.9517 28.4822 26.1538C28.4822 26.356 28.4424 26.5562 28.3651 26.7429C28.2877 26.9297 28.1743 27.0994 28.0314 27.2423C27.8884 27.3852 27.7187 27.4986 27.532 27.576C27.3452 27.6533 27.1451 27.6932 26.9429 27.6932C26.7408 27.6932 26.5406 27.6533 26.3538 27.576C26.1671 27.4986 25.9974 27.3852 25.8545 27.2423L20.7891 22.175L15.7237 27.2423C15.5807 27.3852 15.4111 27.4986 15.2243 27.576C15.0375 27.6533 14.8374 27.6932 14.6352 27.6932C14.4331 27.6932 14.2329 27.6533 14.0462 27.576C13.8594 27.4986 13.6897 27.3852 13.5468 27.2423C13.4038 27.0994 13.2904 26.9297 13.2131 26.7429C13.1357 26.5562 13.0959 26.356 13.0959 26.1538C13.0959 25.9517 13.1357 25.7515 13.2131 25.5648C13.2904 25.378 13.4038 25.2083 13.5468 25.0654L18.6141 20L13.5468 14.9346C13.2581 14.6459 13.0959 14.2544 13.0959 13.8462C13.0959 13.4379 13.2581 13.0464 13.5468 12.7577C13.8354 12.469 14.227 12.3068 14.6352 12.3068C15.0435 12.3068 15.435 12.469 15.7237 12.7577L20.7891 17.825L25.8545 12.7577C25.9974 12.6147 26.1671 12.5014 26.3538 12.424C26.5406 12.3466 26.7408 12.3068 26.9429 12.3068C27.1451 12.3068 27.3452 12.3466 27.532 12.424C27.7187 12.5014 27.8884 12.6147 28.0314 12.7577C28.1743 12.9006 28.2877 13.0703 28.3651 13.2571C28.4424 13.4438 28.4822 13.644 28.4822 13.8462C28.4822 14.0483 28.4424 14.2485 28.3651 14.4352C28.2877 14.622 28.1743 14.7917 28.0314 14.9346L22.9641 20L28.0314 25.0654Z" fill="black"/>
</g>
<defs>
<clipPath id="clip0_6587_3912">
<rect width="40" height="40" fill="white" transform="translate(0.789062)"/>
</clipPath>
</defs>
</svg>
