<svg width="40" height="40" viewBox="0 0 40 40" fill="none" xmlns="http://www.w3.org/2000/svg">
<rect width="40" height="40" rx="6.37471" fill="#F0F0F0"/>
<g clip-path="url(#clip0_6526_6073)">
<path d="M20.0076 14.0228C20.0455 13.4973 20.219 12.9907 20.5112 12.5523C20.8034 12.114 21.2043 11.7588 21.6747 11.5216C22.1451 11.2844 22.6689 11.1732 23.1951 11.1989C23.7213 11.2246 24.2319 11.3863 24.6769 11.6682C24.7278 11.7015 24.7688 11.7479 24.7955 11.8025C24.8223 11.8571 24.8339 11.9179 24.829 11.9785C24.8242 12.0391 24.8031 12.0973 24.768 12.147C24.7329 12.1966 24.685 12.2359 24.6295 12.2607C23.8558 12.6087 23.1991 13.1728 22.7382 13.885C22.2773 14.5972 22.0318 15.4274 22.0312 16.2758C22.0312 16.3748 22.0312 16.4738 22.0414 16.5711C22.046 16.6327 22.0338 16.6943 22.006 16.7494C21.9782 16.8044 21.9358 16.8509 21.8836 16.8836C21.8313 16.9164 21.771 16.9342 21.7094 16.9352C21.6477 16.9363 21.5869 16.9204 21.5336 16.8894C21.0348 16.6041 20.6268 16.1835 20.3568 15.6763C20.0868 15.1691 19.9657 14.5959 20.0076 14.0228ZM29.4791 22.7597C29.4803 23.1466 29.3732 23.5261 29.1697 23.8552C28.9663 24.1843 28.6747 24.4498 28.3281 24.6217L28.2908 24.6386L25.0045 26.0385C24.972 26.0528 24.9383 26.0641 24.9037 26.0723L19.4871 27.4265C19.4334 27.4403 19.3783 27.4474 19.3229 27.4476H10.5208C10.1616 27.4476 9.81721 27.305 9.56325 27.051C9.3093 26.7971 9.16663 26.4526 9.16663 26.0935V22.7081C9.16663 22.3489 9.3093 22.0045 9.56325 21.7505C9.81721 21.4966 10.1616 21.3539 10.5208 21.3539H12.949L14.8634 19.4386C15.1145 19.1864 15.413 18.9865 15.7417 18.8504C16.0705 18.7143 16.4229 18.6447 16.7787 18.6456H21.0156C21.3732 18.6455 21.7262 18.7264 22.0482 18.8822C22.3701 19.038 22.6526 19.2647 22.8745 19.5452C23.0963 19.8257 23.2519 20.1528 23.3293 20.5019C23.4068 20.8511 23.4043 21.2132 23.3219 21.5612L26.863 20.7471C27.1713 20.6654 27.4942 20.6557 27.8069 20.7185C28.1195 20.7814 28.4135 20.9152 28.6663 21.1097C28.9191 21.3041 29.1238 21.554 29.2647 21.8401C29.4056 22.1262 29.479 22.4408 29.4791 22.7597ZM28.125 22.7597C28.1249 22.6477 28.099 22.5373 28.0493 22.437C27.9996 22.3367 27.9275 22.2491 27.8385 22.1812C27.7495 22.1133 27.6461 22.0667 27.5362 22.0452C27.4263 22.0237 27.313 22.0278 27.205 22.0572L27.1787 22.064L21.5082 23.3682C21.4584 23.3793 21.4076 23.385 21.3567 23.3851H18.6458C18.4662 23.3851 18.294 23.3138 18.167 23.1868C18.04 23.0599 17.9687 22.8876 17.9687 22.7081C17.9687 22.5285 18.04 22.3563 18.167 22.2293C18.294 22.1023 18.4662 22.031 18.6458 22.031H21.0156C21.2849 22.031 21.5433 21.924 21.7337 21.7335C21.9242 21.543 22.0312 21.2847 22.0312 21.0154C22.0312 20.746 21.9242 20.4877 21.7337 20.2972C21.5433 20.1067 21.2849 19.9997 21.0156 19.9997H16.7787C16.6008 19.9992 16.4246 20.034 16.2603 20.1021C16.0959 20.1702 15.9468 20.2704 15.8215 20.3967L13.9062 22.3111V26.0935H19.2382L24.522 24.7723L27.7382 23.4029C27.8552 23.3412 27.9532 23.2487 28.0214 23.1353C28.0895 23.0219 28.1254 22.892 28.125 22.7597ZM23.3854 16.2758C23.3854 16.8784 23.5641 17.4675 23.8989 17.9685C24.2337 18.4696 24.7095 18.8601 25.2663 19.0907C25.823 19.3213 26.4356 19.3817 27.0267 19.2641C27.6177 19.1465 28.1606 18.8563 28.5867 18.4302C29.0128 18.0041 29.303 17.4612 29.4206 16.8702C29.5381 16.2791 29.4778 15.6665 29.2472 15.1098C29.0166 14.553 28.6261 14.0772 28.125 13.7424C27.6239 13.4076 27.0349 13.2289 26.4323 13.2289C25.6242 13.2289 24.8492 13.5499 24.2778 14.1213C23.7064 14.6927 23.3854 15.4677 23.3854 16.2758Z" fill="black"/>
</g>
<defs>
<clipPath id="clip0_6526_6073">
<rect width="21.6667" height="21.6667" fill="white" transform="translate(9.16663 9.1665)"/>
</clipPath>
</defs>
</svg>
