<svg width="40" height="41" viewBox="0 0 40 41" fill="none" xmlns="http://www.w3.org/2000/svg">
<rect y="0.5" width="40" height="40" rx="6.37471" fill="#F0F0F0"/>
<g clip-path="url(#clip0_6526_6093)">
<path d="M25.4167 19.0552C22.4252 19.0552 20 21.4804 20 24.4718C20 27.4633 22.4252 29.8885 25.4167 29.8885C28.4081 29.8885 30.8333 27.4633 30.8333 24.4718C30.8333 21.4804 28.4081 19.0552 25.4167 19.0552ZM28.3056 25.1941H26.1389V27.3607H24.6944V25.1941H22.5278V23.7496H24.6944V21.583H26.1389V23.7496H28.3056V25.1941Z" fill="black"/>
<path d="M30.4723 13.6386V11.833H28.6667C28.6667 12.8304 29.4749 13.6386 30.4723 13.6386Z" fill="black"/>
<path d="M11.3334 11.833H9.52783V13.6386C10.5252 13.6386 11.3334 12.8304 11.3334 11.833Z" fill="black"/>
<path d="M18.5556 24.4719C18.5556 23.5215 18.7492 22.6161 19.0987 21.7932C18.1508 21.4805 17.4723 20.699 17.4723 19.7775H18.9167C18.9167 20.1256 19.3316 20.4321 19.8379 20.4881C20.1355 20.0725 20.4782 19.6926 20.8591 19.3531C20.6576 19.1758 20.3427 19.0552 20.0001 19.0552C18.6065 19.0552 17.4723 18.0835 17.4723 16.8886C17.4723 15.9089 18.2349 15.0801 19.2778 14.8133V13.6386H20.7223V14.8133C21.7652 15.0801 22.5278 15.9089 22.5278 16.8886H21.0834C21.0834 16.504 20.5771 16.1663 20.0001 16.1663C19.423 16.1663 18.9167 16.504 18.9167 16.8886C18.9167 17.2731 19.423 17.6108 20.0001 17.6108C20.8378 17.6108 21.5799 17.9636 22.04 18.5035C23.0377 17.9376 24.1882 17.6108 25.4167 17.6108C27.4205 17.6108 29.2178 18.4753 30.4723 19.845V14.7219C28.8769 14.7219 27.5834 13.4284 27.5834 11.833H12.4167C12.4167 13.4284 11.1232 14.7219 9.52783 14.7219V21.9441C11.1232 21.9441 12.4167 23.2376 12.4167 24.833H18.574C18.5675 24.7128 18.5556 24.594 18.5556 24.4719Z" fill="black"/>
<path d="M9.52783 23.0273V24.8329H11.3334C11.3334 23.8355 10.5252 23.0273 9.52783 23.0273Z" fill="black"/>
</g>
<defs>
<clipPath id="clip0_6526_6093">
<rect width="21.6667" height="21.6667" fill="white" transform="translate(9.16663 9.6665)"/>
</clipPath>
</defs>
</svg>
