<svg width="40" height="41" viewBox="0 0 40 41" fill="none" xmlns="http://www.w3.org/2000/svg">
<rect y="0.75" width="40" height="40" rx="6.37471" fill="#F0F0F0"/>
<path d="M23.8931 13.9578C22.8477 12.7504 21.6711 11.6632 20.385 10.7163C20.2712 10.6365 20.1355 10.5938 19.9965 10.5938C19.8575 10.5938 19.7219 10.6365 19.6081 10.7163C18.3244 11.6636 17.15 12.7508 16.1067 13.9578C13.7801 16.6298 12.552 19.4464 12.552 22.104C12.552 24.0793 13.3367 25.9737 14.7334 27.3705C16.1302 28.7672 18.0246 29.5519 19.9999 29.5519C21.9752 29.5519 23.8696 28.7672 25.2664 27.3705C26.6631 25.9737 27.4478 24.0793 27.4478 22.104C27.4478 19.4464 26.2198 16.6298 23.8931 13.9578ZM24.7268 22.8945C24.5512 23.8751 24.0794 24.7785 23.3749 25.4829C22.6703 26.1873 21.7669 26.6589 20.7862 26.8343C20.7501 26.84 20.7136 26.8432 20.677 26.8436C20.5072 26.8435 20.3435 26.7796 20.2186 26.6646C20.0936 26.5496 20.0165 26.3918 20.0024 26.2225C19.9884 26.0533 20.0384 25.8849 20.1427 25.7508C20.2469 25.6168 20.3978 25.5268 20.5653 25.4987C21.9677 25.2626 23.1577 24.0726 23.3955 22.6676C23.4256 22.4905 23.5248 22.3326 23.6713 22.2287C23.8178 22.1247 23.9996 22.0832 24.1767 22.1133C24.3538 22.1434 24.5117 22.2426 24.6156 22.3891C24.7196 22.5356 24.7611 22.7174 24.731 22.8945H24.7268Z" fill="black"/>
</svg>
