<svg width="40" height="41" viewBox="0 0 40 41" fill="none" xmlns="http://www.w3.org/2000/svg">
<rect y="0.25" width="40" height="40" rx="6.37471" fill="#F0F0F0"/>
<path d="M27.4479 20.4327C27.4513 20.3108 27.4513 20.189 27.4479 20.0671L28.7107 18.4895C28.7769 18.4066 28.8227 18.3094 28.8445 18.2056C28.8663 18.1018 28.8633 17.9944 28.836 17.892C28.6286 17.1139 28.3189 16.3669 27.9151 15.6703C27.8622 15.5791 27.7887 15.5016 27.7006 15.4439C27.6124 15.3861 27.512 15.3498 27.4073 15.3377L25.3998 15.1142C25.3163 15.0262 25.2316 14.9416 25.1459 14.8603L24.9089 12.8477C24.8967 12.7429 24.8602 12.6424 24.8023 12.5543C24.7444 12.4661 24.6667 12.3927 24.5754 12.3399C23.8789 11.9364 23.1318 11.6273 22.3537 11.4207C22.2513 11.3934 22.1438 11.3904 22.04 11.4122C21.9363 11.4339 21.839 11.4798 21.7562 11.546L20.1828 12.802C20.061 12.802 19.9391 12.802 19.8172 12.802L18.2396 11.5418C18.1568 11.4755 18.0595 11.4297 17.9558 11.408C17.852 11.3862 17.7445 11.3891 17.6421 11.4165C16.8641 11.6239 16.117 11.9335 15.4204 12.3373C15.3293 12.3903 15.2517 12.4637 15.194 12.5519C15.1362 12.64 15.0999 12.7405 15.0878 12.8451L14.8643 14.8561C14.7763 14.9402 14.6917 15.0248 14.6104 15.11L12.5978 15.341C12.493 15.3532 12.3926 15.3897 12.3044 15.4476C12.2162 15.5055 12.1428 15.5832 12.09 15.6745C11.6866 16.3712 11.3772 17.1183 11.17 17.8962C11.1428 17.9987 11.14 18.1062 11.1619 18.21C11.1838 18.3138 11.2298 18.411 11.2961 18.4937L12.5521 20.0671C12.5521 20.189 12.5521 20.3108 12.5521 20.4327L11.2919 22.0103C11.2257 22.0931 11.1798 22.1904 11.1581 22.2942C11.1363 22.3979 11.1392 22.5054 11.1666 22.6078C11.374 23.3858 11.6836 24.1329 12.0875 24.8295C12.1404 24.9207 12.2138 24.9982 12.302 25.0559C12.3902 25.1137 12.4906 25.15 12.5953 25.1621L14.6028 25.3856C14.6869 25.4736 14.7715 25.5582 14.8567 25.6395L15.0912 27.6521C15.1034 27.7569 15.1398 27.8573 15.1977 27.9455C15.2556 28.0337 15.3333 28.1071 15.4246 28.1599C16.1213 28.5633 16.8684 28.8727 17.6463 29.0799C17.7488 29.1072 17.8563 29.11 17.9601 29.088C18.0639 29.0661 18.1611 29.0202 18.2438 28.9538L19.8172 27.6978C19.9391 27.7012 20.061 27.7012 20.1828 27.6978L21.7604 28.9606C21.8433 29.0268 21.9405 29.0726 22.0443 29.0944C22.1481 29.1161 22.2555 29.1132 22.358 29.0858C23.1361 28.8788 23.8832 28.5692 24.5796 28.165C24.6708 28.1121 24.7483 28.0386 24.806 27.9505C24.8638 27.8623 24.9002 27.7619 24.9123 27.6572L25.1357 25.6496C25.2237 25.5661 25.3084 25.4815 25.3896 25.3957L27.4022 25.1588C27.507 25.1466 27.6075 25.1101 27.6956 25.0522C27.7838 24.9943 27.8572 24.9166 27.91 24.8253C28.3135 24.1286 28.6228 23.3815 28.83 22.6036C28.8573 22.5011 28.8601 22.3936 28.8382 22.2898C28.8163 22.186 28.7703 22.0888 28.7039 22.0061L27.4479 20.4327ZM20 23.6353C19.3304 23.6353 18.6759 23.4368 18.1192 23.0648C17.5625 22.6928 17.1285 22.164 16.8723 21.5454C16.6161 20.9268 16.549 20.2461 16.6797 19.5894C16.8103 18.9327 17.1327 18.3295 17.6062 17.856C18.0796 17.3826 18.6828 17.0602 19.3396 16.9295C19.9963 16.7989 20.677 16.8659 21.2956 17.1222C21.9142 17.3784 22.4429 17.8123 22.8149 18.3691C23.1869 18.9258 23.3854 19.5803 23.3854 20.2499C23.3854 21.1478 23.0288 22.0089 22.3939 22.6437C21.759 23.2786 20.8979 23.6353 20 23.6353Z" fill="black"/>
</svg>
