<svg width="40" height="41" viewBox="0 0 40 41" fill="none" xmlns="http://www.w3.org/2000/svg">
<rect y="0.875" width="40" height="40" rx="7.64965" fill="#F0F0F0"/>
<g clip-path="url(#clip0_6526_6031)">
<path d="M24.7396 17.6221V17.1507C24.7396 15.0281 21.5378 13.4268 17.2917 13.4268C13.0455 13.4268 9.84375 15.0281 9.84375 17.1507V20.5361C9.84375 22.3042 12.0654 23.7091 15.2604 24.1298V24.5986C15.2604 26.7213 18.4622 28.3226 22.7083 28.3226C26.9545 28.3226 30.1562 26.7213 30.1562 24.5986V21.2132C30.1562 19.4613 28.0048 18.0546 24.7396 17.6221ZM13.9062 22.4717C12.2482 22.0088 11.1979 21.2462 11.1979 20.5361V19.3453C11.8885 19.8345 12.8136 20.2289 13.9062 20.4938V22.4717ZM20.6771 20.4938C21.7697 20.2289 22.6948 19.8345 23.3854 19.3453V20.5361C23.3854 21.2462 22.3351 22.0088 20.6771 22.4717V20.4938ZM19.3229 26.5342C17.6649 26.0713 16.6146 25.3087 16.6146 24.5986V24.2457C16.8372 24.2542 17.0623 24.2601 17.2917 24.2601C17.6201 24.2601 17.9408 24.2491 18.2557 24.2305C18.6054 24.3557 18.9617 24.4619 19.3229 24.5487V26.5342ZM19.3229 22.7578C18.6504 22.8572 17.9715 22.9067 17.2917 22.9059C16.6119 22.9067 15.9329 22.8572 15.2604 22.7578V20.7443C15.9339 20.8321 16.6125 20.8756 17.2917 20.8747C17.9709 20.8756 18.6494 20.8321 19.3229 20.7443V22.7578ZM24.7396 26.8203C23.3926 27.0178 22.024 27.0178 20.6771 26.8203V24.8018C21.3504 24.8923 22.029 24.9375 22.7083 24.9372C23.3875 24.9381 24.0661 24.8946 24.7396 24.8068V26.8203ZM28.8021 24.5986C28.8021 25.3087 27.7518 26.0713 26.0938 26.5342V24.5563C27.1864 24.2914 28.1115 23.897 28.8021 23.4078V24.5986Z" fill="black"/>
</g>
<defs>
<clipPath id="clip0_6526_6031">
<rect width="21.6667" height="21.6667" fill="white" transform="translate(9.16663 10.0415)"/>
</clipPath>
</defs>
</svg>
