<svg width="40" height="41" viewBox="0 0 40 41" fill="none" xmlns="http://www.w3.org/2000/svg">
<rect y="0.5" width="40" height="40" rx="6.37471" fill="#F0F0F0"/>
<g clip-path="url(#clip0_6526_6050)">
<path d="M23.3854 20.5C23.3854 21.1696 23.1869 21.8241 22.8149 22.3808C22.4429 22.9376 21.9141 23.3715 21.2955 23.6277C20.6769 23.884 19.9962 23.951 19.3395 23.8204C18.6828 23.6897 18.0796 23.3673 17.6061 22.8939C17.1327 22.4204 16.8103 21.8172 16.6796 21.1605C16.549 20.5038 16.616 19.8231 16.8723 19.2045C17.1285 18.5859 17.5624 18.0571 18.1192 17.6851C18.6759 17.3131 19.3304 17.1146 20 17.1146C20.8979 17.1146 21.759 17.4713 22.3939 18.1061C23.0287 18.741 23.3854 19.6021 23.3854 20.5ZM30.1562 15.0833V25.9167C30.1562 26.0962 30.0849 26.2685 29.9579 26.3954C29.831 26.5224 29.6587 26.5938 29.4792 26.5938H10.5208C10.3413 26.5938 10.169 26.5224 10.0421 26.3954C9.91509 26.2685 9.84375 26.0962 9.84375 25.9167V15.0833C9.84375 14.9038 9.91509 14.7315 10.0421 14.6046C10.169 14.4776 10.3413 14.4062 10.5208 14.4062H29.4792C29.6587 14.4062 29.831 14.4776 29.9579 14.6046C30.0849 14.7315 30.1562 14.9038 30.1562 15.0833ZM28.8021 19.0062C28.0333 18.7789 27.3335 18.3628 26.7666 17.7959C26.1997 17.229 25.7836 16.5292 25.5563 15.7604H14.4437C14.2164 16.5292 13.8003 17.229 13.2334 17.7959C12.6665 18.3628 11.9667 18.7789 11.1979 19.0062V21.9938C11.9667 22.2211 12.6665 22.6372 13.2334 23.2041C13.8003 23.771 14.2164 24.4708 14.4437 25.2396H25.5563C25.7836 24.4708 26.1997 23.771 26.7666 23.2041C27.3335 22.6372 28.0333 22.2211 28.8021 21.9938V19.0062Z" fill="black"/>
</g>
<defs>
<clipPath id="clip0_6526_6050">
<rect width="21.6667" height="21.6667" fill="white" transform="translate(9.16663 9.6665)"/>
</clipPath>
</defs>
</svg>
