<svg width="40" height="41" viewBox="0 0 40 41" fill="none" xmlns="http://www.w3.org/2000/svg">
<rect y="0.25" width="40" height="40" rx="6.37471" fill="#F0F0F0"/>
<path d="M28.5312 23.7708C28.414 23.6829 28.2714 23.6354 28.1249 23.6354H27.4478V14.8333C27.4478 14.115 27.1625 13.4262 26.6546 12.9183C26.1467 12.4103 25.4578 12.125 24.7395 12.125H13.2291C12.5108 12.125 11.8219 12.4103 11.314 12.9183C10.8061 13.4262 10.5208 14.115 10.5208 14.8333C10.5208 15.9852 11.3713 16.6564 11.4687 16.7292C11.5855 16.8177 11.7283 16.8653 11.8749 16.8646C12.016 16.8642 12.1535 16.8197 12.2681 16.7374C12.3827 16.6551 12.4687 16.539 12.5141 16.4054C12.5595 16.2718 12.5621 16.1273 12.5214 15.9922C12.4807 15.8571 12.3988 15.738 12.2871 15.6518C12.2837 15.6475 11.8749 15.3191 11.8749 14.8333C11.8749 14.4742 12.0176 14.1297 12.2715 13.8758C12.5255 13.6218 12.8699 13.4792 13.2291 13.4792C13.5882 13.4792 13.9327 13.6218 14.1866 13.8758C14.4406 14.1297 14.5833 14.4742 14.5833 14.8333V25.6667C14.5833 26.385 14.8686 27.0738 15.3765 27.5817C15.8844 28.0897 16.5733 28.375 17.2916 28.375H26.7708C27.489 28.375 28.1779 28.0897 28.6858 27.5817C29.1937 27.0738 29.4791 26.385 29.4791 25.6667C29.4791 24.5148 28.6327 23.8436 28.5312 23.7708ZM18.6458 17.5417H24.0624C24.242 17.5417 24.4142 17.613 24.5412 17.74C24.6682 17.867 24.7395 18.0392 24.7395 18.2188C24.7395 18.3983 24.6682 18.5705 24.5412 18.6975C24.4142 18.8245 24.242 18.8958 24.0624 18.8958H18.6458C18.4662 18.8958 18.294 18.8245 18.167 18.6975C18.04 18.5705 17.9687 18.3983 17.9687 18.2188C17.9687 18.0392 18.04 17.867 18.167 17.74C18.294 17.613 18.4662 17.5417 18.6458 17.5417ZM17.9687 20.9271C17.9687 20.7475 18.04 20.5753 18.167 20.4483C18.294 20.3213 18.4662 20.25 18.6458 20.25H24.0624C24.242 20.25 24.4142 20.3213 24.5412 20.4483C24.6682 20.5753 24.7395 20.7475 24.7395 20.9271C24.7395 21.1067 24.6682 21.2789 24.5412 21.4059C24.4142 21.5328 24.242 21.6042 24.0624 21.6042H18.6458C18.4662 21.6042 18.294 21.5328 18.167 21.4059C18.04 21.2789 17.9687 21.1067 17.9687 20.9271ZM26.7708 27.0208H18.9598C19.1982 26.6094 19.3235 26.1422 19.3228 25.6667C19.323 25.4371 19.2885 25.2088 19.2204 24.9896H27.8532C28.0213 25.176 28.1181 25.4158 28.1266 25.6667C28.1266 25.8446 28.0915 26.0209 28.0234 26.1853C27.9552 26.3497 27.8553 26.499 27.7294 26.6248C27.6035 26.7506 27.454 26.8503 27.2895 26.9182C27.125 26.9862 26.9487 27.0211 26.7708 27.0208Z" fill="black"/>
</svg>
