<svg width="18" height="18" viewBox="0 0 18 18" fill="none" xmlns="http://www.w3.org/2000/svg">
<path d="M8.66797 15.1348C8.66797 15.2777 8.61117 15.4148 8.51008 15.5159C8.40899 15.617 8.27187 15.6738 8.12891 15.6738H3.81641C3.67344 15.6738 3.53633 15.617 3.43523 15.5159C3.33414 15.4148 3.27734 15.2777 3.27734 15.1348V3.27539C3.27734 3.13242 3.33414 2.99531 3.43523 2.89422C3.53633 2.79312 3.67344 2.73633 3.81641 2.73633H8.12891C8.27187 2.73633 8.40899 2.79312 8.51008 2.89422C8.61117 2.99531 8.66797 3.13242 8.66797 3.27539C8.66797 3.41836 8.61117 3.55547 8.51008 3.65657C8.40899 3.75766 8.27187 3.81445 8.12891 3.81445H4.35547V14.5957H8.12891C8.27187 14.5957 8.40899 14.6525 8.51008 14.7536C8.61117 14.8547 8.66797 14.9918 8.66797 15.1348ZM16.0572 8.82369L13.3619 6.12838C13.2865 6.0529 13.1904 6.00149 13.0858 5.98066C12.9811 5.95983 12.8727 5.9705 12.7741 6.01134C12.6756 6.05217 12.5913 6.12133 12.5321 6.21006C12.4729 6.29878 12.4413 6.40309 12.4414 6.50977V8.66602H8.12891C7.98594 8.66602 7.84883 8.72281 7.74773 8.8239C7.64664 8.925 7.58984 9.06211 7.58984 9.20508C7.58984 9.34805 7.64664 9.48516 7.74773 9.58625C7.84883 9.68735 7.98594 9.74414 8.12891 9.74414H12.4414V11.9004C12.4413 12.0071 12.4729 12.1114 12.5321 12.2001C12.5913 12.2888 12.6756 12.358 12.7741 12.3988C12.8727 12.4397 12.9811 12.4503 13.0858 12.4295C13.1904 12.4087 13.2865 12.3573 13.3619 12.2818L16.0572 9.58646C16.1073 9.5364 16.147 9.47695 16.1742 9.41151C16.2013 9.34607 16.2153 9.27592 16.2153 9.20508C16.2153 9.13424 16.2013 9.06409 16.1742 8.99865C16.147 8.93321 16.1073 8.87376 16.0572 8.82369Z" fill="black"/>
</svg>
