<svg width="180" height="80" viewBox="0 0 180 80" fill="none" xmlns="http://www.w3.org/2000/svg">
<path d="M129.155 45.9055L139.904 58.3236H151.014L134.982 38.2844L129.155 45.9055Z" fill="#707070"/>
<path d="M0 19.7168H25.587V29.286H9.74436V38.6443H25.587V48.0741H9.74436V71.2768H0V19.7168Z" fill="#02001E"/>
<path d="M90.3535 80.0001L123.873 46.2094L118.132 39.196L90.3535 80.0001Z" fill="#707070"/>
<path d="M30.0449 19.7168H39.4604L61.5229 53.6469V19.7168H71.3387V71.2768H61.8982L39.8643 37.454V71.2768H30.0449V19.7168Z" fill="#02001E"/>
<path d="M127.698 33.3653L116.953 19.7032H95.5088V19.7175H73.7252V29.3904H82.8726V71.2776H92.8279V29.3904H102.222V29.3797L113.671 29.3689C117.868 34.3162 124.174 41.8586 126.611 45.0257C147.369 11.6854 179.351 0 179.351 0C150.204 7.74259 127.698 33.3653 127.698 33.3653Z" fill="#02001E"/>
</svg>
