<svg width="18" height="18" viewBox="0 0 18 18" fill="none" xmlns="http://www.w3.org/2000/svg">
<path d="M16.6124 7.80363C16.5974 7.72772 16.5662 7.65593 16.5209 7.59314C16.4757 7.53036 16.4175 7.47804 16.3503 7.43976L14.3402 6.29425L14.3321 4.02884C14.3319 3.95082 14.3147 3.87379 14.2818 3.80305C14.2489 3.73232 14.201 3.66957 14.1414 3.61915C13.4123 3.0024 12.5727 2.52975 11.6671 2.22635C11.5958 2.20222 11.5203 2.19328 11.4453 2.20013C11.3703 2.20698 11.2976 2.22945 11.2319 2.26611L9.20431 3.39949L7.17474 2.26409C7.10894 2.22722 7.03614 2.20458 6.96104 2.19762C6.88594 2.19065 6.81022 2.19952 6.73877 2.22366C5.8338 2.52901 4.99506 3.00348 4.26717 3.62185C4.20771 3.6722 4.15988 3.73483 4.12696 3.80544C4.09404 3.87605 4.07682 3.95296 4.07647 4.03086L4.06637 6.2983L2.05634 7.4438C1.98909 7.48209 1.93087 7.5344 1.88564 7.59719C1.84041 7.65997 1.80923 7.73176 1.79422 7.80767C1.61026 8.73208 1.61026 9.68369 1.79422 10.6081C1.80923 10.684 1.84041 10.7558 1.88564 10.8186C1.93087 10.8814 1.98909 10.9337 2.05634 10.972L4.06637 12.1175L4.07445 14.3836C4.0747 14.4616 4.09187 14.5386 4.1248 14.6093C4.15772 14.6801 4.20561 14.7428 4.26515 14.7932C4.99428 15.41 5.83392 15.8826 6.73944 16.186C6.81075 16.2102 6.88633 16.2191 6.9613 16.2123C7.03627 16.2054 7.10898 16.1829 7.17474 16.1463L9.20431 15.0095L11.2339 16.1449C11.3142 16.1897 11.4047 16.2129 11.4967 16.2123C11.5555 16.2123 11.614 16.2028 11.6698 16.184C12.5746 15.8788 13.4133 15.4048 14.1414 14.7872C14.2009 14.7368 14.2487 14.6742 14.2817 14.6036C14.3146 14.533 14.3318 14.4561 14.3321 14.3782L14.3422 12.1107L16.3523 10.9652C16.4195 10.9269 16.4777 10.8746 16.523 10.8118C16.5682 10.7491 16.5994 10.6773 16.6144 10.6014C16.7973 9.67769 16.7966 8.72704 16.6124 7.80363ZM9.20431 11.8998C8.67122 11.8998 8.15011 11.7418 7.70687 11.4456C7.26363 11.1494 6.91816 10.7285 6.71416 10.236C6.51016 9.74346 6.45678 9.20153 6.56078 8.67869C6.66478 8.15585 6.92149 7.67559 7.29843 7.29864C7.67538 6.9217 8.15564 6.66499 8.67848 6.56099C9.20132 6.45699 9.74325 6.51037 10.2358 6.71437C10.7283 6.91837 11.1492 7.26384 11.4454 7.70708C11.7415 8.15032 11.8996 8.67143 11.8996 9.20452C11.8996 9.91936 11.6156 10.6049 11.1102 11.1104C10.6047 11.6159 9.91915 11.8998 9.20431 11.8998Z" fill="#737373"/>
</svg>
