<svg width="20" height="20" viewBox="0 0 20 20" fill="none" xmlns="http://www.w3.org/2000/svg">
<path d="M18.0781 3.46358C18.0781 3.46358 18.0781 3.4714 18.0781 3.4753L13.5312 18.4706C13.4624 18.7142 13.3207 18.9309 13.1252 19.0916C12.9297 19.2523 12.6897 19.3494 12.4374 19.3698C12.4015 19.373 12.3656 19.3745 12.3296 19.3745C12.0932 19.3753 11.8615 19.3083 11.6619 19.1817C11.4623 19.055 11.3031 18.8739 11.2031 18.6597L8.35931 12.8237C8.33086 12.7653 8.32136 12.6993 8.33214 12.6352C8.34293 12.5711 8.37345 12.5119 8.41947 12.4659L12.9445 7.94093C13.0567 7.82276 13.1184 7.66542 13.1163 7.50244C13.1142 7.33947 13.0485 7.18375 12.9333 7.0685C12.818 6.95325 12.6623 6.88758 12.4994 6.8855C12.3364 6.88341 12.179 6.94507 12.0609 7.05733L7.53353 11.5823C7.48757 11.6283 7.42839 11.6589 7.36425 11.6697C7.30011 11.6804 7.2342 11.6709 7.17572 11.6425L1.33431 8.79952C1.10589 8.68993 0.916158 8.51353 0.790262 8.29367C0.664365 8.07382 0.608246 7.8209 0.629342 7.56843C0.650437 7.31596 0.747752 7.07586 0.908388 6.87994C1.06903 6.68403 1.2854 6.54156 1.52884 6.4714L16.5242 1.92452H16.5359C16.7494 1.86454 16.975 1.86244 17.1896 1.91843C17.4042 1.97442 17.6 2.0865 17.757 2.24315C17.9139 2.39981 18.0264 2.5954 18.0828 2.80987C18.1393 3.02434 18.1376 3.24996 18.0781 3.46358Z" fill="black"/>
</svg>
