<svg width="25" height="24" viewBox="0 0 25 24" fill="none" xmlns="http://www.w3.org/2000/svg">
<path d="M12.25 2.25C10.3216 2.25 8.43657 2.82183 6.83319 3.89317C5.22982 4.96452 3.98013 6.48726 3.24218 8.26884C2.50422 10.0504 2.31114 12.0108 2.68735 13.9021C3.06355 15.7934 3.99215 17.5307 5.35571 18.8943C6.71927 20.2579 8.45656 21.1865 10.3479 21.5627C12.2392 21.9389 14.1996 21.7458 15.9812 21.0078C17.7627 20.2699 19.2855 19.0202 20.3568 17.4168C21.4282 15.8134 22 13.9284 22 12C21.9973 9.41498 20.9692 6.93661 19.1413 5.10872C17.3134 3.28084 14.835 2.25273 12.25 2.25ZM16.5306 10.2806L11.2806 15.5306C11.211 15.6004 11.1283 15.6557 11.0372 15.6934C10.9462 15.7312 10.8486 15.7506 10.75 15.7506C10.6514 15.7506 10.5538 15.7312 10.4628 15.6934C10.3718 15.6557 10.289 15.6004 10.2194 15.5306L7.96938 13.2806C7.82865 13.1399 7.74959 12.949 7.74959 12.75C7.74959 12.551 7.82865 12.3601 7.96938 12.2194C8.11011 12.0786 8.30098 11.9996 8.5 11.9996C8.69903 11.9996 8.8899 12.0786 9.03063 12.2194L10.75 13.9397L15.4694 9.21937C15.5391 9.14969 15.6218 9.09442 15.7128 9.0567C15.8039 9.01899 15.9015 8.99958 16 8.99958C16.0985 8.99958 16.1961 9.01899 16.2872 9.0567C16.3782 9.09442 16.4609 9.14969 16.5306 9.21937C16.6003 9.28906 16.6556 9.37178 16.6933 9.46283C16.731 9.55387 16.7504 9.65145 16.7504 9.75C16.7504 9.84855 16.731 9.94613 16.6933 10.0372C16.6556 10.1282 16.6003 10.2109 16.5306 10.2806Z" fill="#006E25"/>
</svg>

